# xmcd CD database file
#
# Track frame offsets:
#	150
#	18397
#	38755
#	54325
#
# Disc length: 887 seconds
#
# Revision: 0
# Processed by: cddbd v1.5PL3 Copyright (c) Steve Scherf et al.
# Submitted via: CDex 1.51
#
DISCID=26037504
DTITLE=Peter MEYER - Vü Z'vü Promü
DYEAR=1993
DGENRE=Austria-Cult
TTITLE0=Vü Z'vü Promü
TTITLE1=Mei Oide Hat Sich Abgseilt
TTITLE2=Liebes Heiratsinstitut
TTITLE3=Die Meyer Leyer
EXTD=YEAR: 1993
EXTT0=
EXTT1=
EXTT2=
EXTT3=
PLAYORDER=
